<svg width="800" height="800" viewBox="0 0 800 800" fill="none" xmlns="http://www.w3.org/2000/svg">
<path d="M300 733.333H500C666.667 733.333 733.333 666.666 733.333 500V300C733.333 133.333 666.667 66.6665 500 66.6665H300C133.333 66.6665 66.6666 133.333 66.6666 300V500C66.6666 666.666 133.333 733.333 300 733.333Z" stroke="#292D32" stroke-width="50" stroke-linecap="round" stroke-linejoin="round"/>
<path d="M249.363 480.862L318.888 550.387C376.825 608.325 423.175 608.325 481.112 550.387L550.637 480.862C608.575 422.925 608.575 376.575 550.637 318.637L481.112 249.112C423.175 191.175 376.825 191.175 318.888 249.112L249.363 318.637C191.425 376.575 191.425 422.925 249.363 480.862Z" stroke="#292D32" stroke-width="50" stroke-linecap="round" stroke-linejoin="round"/>
</svg>
