<svg width="100" height="100" viewBox="0 0 100 100" fill="none" xmlns="http://www.w3.org/2000/svg">
<path d="M63.9805 14V25.1699L73.7314 37.2275L49.959 72.2715L25.3027 37.3496L34.2002 25.2461V14H63.9805ZM40.2002 27.2148L32.6973 37.4189L49.8604 61.7285L66.2676 37.541L57.9805 27.292V20H40.2002V27.2148Z" fill="#292D32"/>
<path d="M40.2002 27.2148L32.6973 37.4189L49.8604 61.7285L66.2676 37.541L57.9805 27.292V20H40.2002V27.2148Z" fill="#FFBE5F"/>
<path d="M61 24V30H37V24H61Z" fill="#292D32"/>
<path d="M53 64L47 64L47 44L53 44L53 64Z" fill="#292D32"/>
<path d="M30.8145 75.8818C30.5872 75.8818 30.3235 75.9089 30.0332 75.9619C28.3069 76.3159 27.0002 77.8549 27 79.6953C27 81.7998 28.7099 83.5098 30.8145 83.5098C32.6549 83.5096 34.1939 82.2029 34.5479 80.4766C34.6009 80.1863 34.6279 79.9226 34.6279 79.6953C34.6277 77.591 32.9187 75.882 30.8145 75.8818ZM30.8145 69.8818C36.2324 69.882 40.6277 74.2773 40.6279 79.6953C40.6279 80.3872 40.5474 81.0408 40.4404 81.6113C40.4379 81.6247 40.4353 81.638 40.4326 81.6514C39.5283 86.1336 35.5657 89.5096 30.8145 89.5098C25.3962 89.5098 21 85.1136 21 79.6953C21.0002 75.0925 24.1683 71.2299 28.4414 70.1709L28.8584 70.0771L28.8984 70.0693C29.469 69.9624 30.1225 69.8818 30.8145 69.8818Z" fill="#292D32"/>
<path d="M70.1855 75.8818C68.0811 75.8818 66.3713 77.5909 66.3711 79.6953C66.3711 79.9225 66.3972 80.1864 66.4502 80.4766C66.8041 82.2031 68.3449 83.5098 70.1855 83.5098C72.2899 83.5096 73.999 81.7997 73.999 79.6953C73.9989 77.8555 72.6932 76.3176 70.9678 75.9629C70.6769 75.9097 70.4132 75.8819 70.1855 75.8818ZM70.1855 69.8818C70.8772 69.8819 71.5302 69.9624 72.1006 70.0693C72.1141 70.0719 72.1281 70.0744 72.1416 70.0771C76.6237 70.9816 79.9989 74.9442 79.999 79.6953C79.999 85.1134 75.6036 89.5096 70.1855 89.5098C65.4342 89.5098 61.4707 86.1337 60.5664 81.6514L60.5586 81.6113C60.4516 81.0408 60.3711 80.3872 60.3711 79.6953C60.3713 74.2772 64.7674 69.8818 70.1855 69.8818Z" fill="#292D32"/>
<path d="M63 77V83H37V77H63Z" fill="#292D32"/>
</svg>
