<svg width="100" height="100" viewBox="0 0 100 100" fill="none" xmlns="http://www.w3.org/2000/svg">
<path fill-rule="evenodd" clip-rule="evenodd" d="M50 81.25C67.2587 81.25 81.25 67.2587 81.25 50C81.25 32.7411 67.2587 18.75 50 18.75C32.7411 18.75 18.75 32.7411 18.75 50C18.75 67.2587 32.7411 81.25 50 81.25ZM50 87.5C70.7108 87.5 87.5 70.7108 87.5 50C87.5 29.2893 70.7108 12.5 50 12.5C29.2893 12.5 12.5 29.2893 12.5 50C12.5 70.7108 29.2893 87.5 50 87.5Z" fill="#292D32"/>
<path fill-rule="evenodd" clip-rule="evenodd" d="M50 81.25C67.2587 81.25 81.25 67.2587 81.25 50C81.25 32.7411 67.2587 18.75 50 18.75C32.7411 18.75 18.75 32.7411 18.75 50C18.75 67.2587 32.7411 81.25 50 81.25Z" fill="#5DBD98"/>
</svg>
