<svg width="100" height="100" viewBox="0 0 100 100" fill="none" xmlns="http://www.w3.org/2000/svg">
<path fill-rule="evenodd" clip-rule="evenodd" d="M50.0011 21.875C38.4417 21.875 28.3214 28.7967 21.3674 35.2013C17.8345 38.4551 14.9851 41.6992 13.0191 44.1275C12.0341 45.3437 11.266 46.3617 10.7396 47.0821C10.4764 47.4425 10.2732 47.7287 10.1334 47.9287C10.0635 48.0287 10.0094 48.1071 9.97148 48.1625L9.92677 48.2279L9.9136 48.2475L8.77344 50.055L9.90935 51.7462L9.9136 51.7525L9.92677 51.7721L9.97148 51.8375C10.0094 51.8929 10.0635 51.9712 10.1334 52.0712C10.2732 52.2712 10.4764 52.5575 10.7396 52.9179C11.266 53.6383 12.0341 54.6562 13.0191 55.8725C14.9851 58.3008 17.8345 61.545 21.3674 64.7987C28.3214 71.2033 38.4417 78.125 50.0011 78.125C61.5602 78.125 71.6802 71.2033 78.6344 64.7987C82.1673 61.545 85.0169 58.3008 86.9827 55.8725C87.9677 54.6562 88.7356 53.6383 89.2623 52.9179C89.5252 52.5575 89.7286 52.2712 89.8681 52.0712C89.9381 51.9712 89.9923 51.8929 90.0302 51.8375L90.0748 51.7721L90.0881 51.7525L90.094 51.7442L91.2652 50L90.0923 48.2537L90.0881 48.2475L90.0748 48.2279L90.0302 48.1625C89.9923 48.1071 89.9381 48.0287 89.8681 47.9287C89.7286 47.7287 89.5252 47.4425 89.2623 47.0821C88.7356 46.3617 87.9677 45.3437 86.9827 44.1275C85.0169 41.6992 82.1673 38.4551 78.6344 35.2013C71.6802 28.7967 61.5602 21.875 50.0011 21.875ZM17.8766 51.94C17.2791 51.2021 16.7706 50.5462 16.3579 50C16.7706 49.4537 17.2791 48.7979 17.8766 48.06C19.7058 45.8008 22.3481 42.795 25.6014 39.7987C32.2196 33.7033 40.8494 28.125 50.0011 28.125C59.1523 28.125 67.7823 33.7033 74.4002 39.7987C77.6536 42.795 80.2961 45.8008 82.1252 48.06C82.7227 48.7979 83.2311 49.4537 83.644 50C83.2311 50.5462 82.7227 51.2021 82.1252 51.94C80.2961 54.1992 77.6536 57.205 74.4002 60.2012C67.7823 66.2967 59.1523 71.875 50.0011 71.875C40.8494 71.875 32.2196 66.2967 25.6014 60.2012C22.3481 57.205 19.7058 54.1992 17.8766 51.94ZM59.3756 50C59.3756 55.1775 55.1786 59.375 50.0006 59.375C44.8231 59.375 40.6259 55.1775 40.6259 50C40.6259 44.8225 44.8231 40.625 50.0006 40.625C55.1786 40.625 59.3756 44.8225 59.3756 50ZM65.6256 50C65.6256 58.6296 58.6302 65.625 50.0006 65.625C41.3714 65.625 34.3759 58.6296 34.3759 50C34.3759 41.3705 41.3714 34.375 50.0006 34.375C58.6302 34.375 65.6256 41.3705 65.6256 50Z" fill="#292D32"/>
</svg>
