<svg width="100" height="100" viewBox="0 0 100 100" fill="none" xmlns="http://www.w3.org/2000/svg">
<path fill-rule="evenodd" clip-rule="evenodd" d="M64.9082 56.8059C67.6657 50.763 66.5582 43.3888 61.5853 38.4157C56.6124 33.4429 49.2382 32.3351 43.1953 35.0926L48.1411 40.0383C51.3132 39.4491 54.712 40.3814 57.1657 42.8351C59.6195 45.2888 60.552 48.688 59.9628 51.86L64.9082 56.8059Z" fill="#292D32"/>
<path fill-rule="evenodd" clip-rule="evenodd" d="M24.4315 32.5325C23.3525 33.4189 22.3295 34.3151 21.3672 35.2013C17.8344 38.4551 14.985 41.6992 13.019 44.1275C12.034 45.3437 11.2659 46.3617 10.7395 47.0821C10.4762 47.4425 10.2731 47.7287 10.1333 47.9287C10.0634 48.0287 10.0093 48.1071 9.97137 48.1625L9.92666 48.2279L9.91349 48.2475L9.90925 48.2537L8.73633 50L9.90654 51.7421L9.90925 51.7462L9.91349 51.7525L9.92666 51.7721L9.97137 51.8375C10.0093 51.8929 10.0634 51.9712 10.1333 52.0712C10.2731 52.2712 10.4762 52.5575 10.7395 52.9179C11.2659 53.6383 12.034 54.6562 13.019 55.8725C14.985 58.3008 17.8344 61.545 21.3672 64.7987C28.3213 71.2033 38.4416 78.125 50.0007 78.125C55.7065 78.125 61.0619 76.4383 65.859 73.96L61.1807 69.2821C57.6211 70.8846 53.8573 71.875 50.0007 71.875C40.8492 71.875 32.2196 66.2967 25.6013 60.2012C22.348 57.205 19.7057 54.1992 17.8765 51.94C17.279 51.2021 16.7705 50.5462 16.3578 50C16.7705 49.4537 17.279 48.7979 17.8765 48.06C19.7057 45.8008 22.348 42.795 25.6013 39.7987C26.6443 38.8381 27.7372 37.8904 28.8742 36.9753L24.4315 32.5325ZM71.1277 63.0242C72.2648 62.1096 73.3573 61.1617 74.4002 60.2012C77.6536 57.205 80.2957 54.1992 82.1252 51.94C82.7223 51.2021 83.2311 50.5462 83.6436 50C83.2311 49.4537 82.7223 48.7979 82.1252 48.06C80.2957 45.8008 77.6536 42.795 74.4002 39.7987C67.7819 33.7033 59.1523 28.125 50.0007 28.125C46.1444 28.125 42.3807 29.1155 38.8212 30.7178L34.1432 26.0397C38.94 23.5615 44.2952 21.875 50.0007 21.875C61.5598 21.875 71.6802 28.7967 78.6344 35.2013C82.1673 38.4551 85.0165 41.6992 86.9827 44.1275C87.9673 45.3437 88.7357 46.3617 89.2619 47.0821C89.5253 47.4425 89.7286 47.7287 89.8682 47.9287C89.9382 48.0287 89.9923 48.1071 90.0302 48.1625L90.0748 48.2279L90.0882 48.2475L90.0923 48.2537L91.2652 50L90.094 51.7442L90.0882 51.7525L90.0748 51.7721L90.0302 51.8375C89.9923 51.8929 89.9382 51.9712 89.8682 52.0712C89.7286 52.2712 89.5253 52.5575 89.2619 52.9179C88.7357 53.6383 87.9673 54.6562 86.9827 55.8725C85.0165 58.3008 82.1673 61.545 78.6344 64.7987C77.6723 65.685 76.6494 66.5808 75.5707 67.4671L71.1277 63.0242Z" fill="#292D32"/>
<path fill-rule="evenodd" clip-rule="evenodd" d="M78.125 82.5446L15.625 20.0444L20.0444 15.625L82.5446 78.125L78.125 82.5446Z" fill="#292D32"/>
</svg>
