<svg width="800" height="800" viewBox="0 0 800 800" fill="none" xmlns="http://www.w3.org/2000/svg">
<path d="M506 671C478.386 671 456 648.614 456 621L456 174.611C456 149.421 476.421 129 501.611 129C520.867 129 538.049 141.093 544.547 159.22L704.029 604.128C715.705 636.7 691.563 671 656.962 671L506 671Z" stroke="#292D32" stroke-width="50" stroke-linecap="round" stroke-linejoin="round"/>
<path d="M292 671C319.614 671 342 648.614 342 621L342 174.42C342 149.335 321.665 129 296.58 129C277.385 129 260.262 141.067 253.806 159.144L94.8632 604.183C83.2338 636.745 107.374 671 141.95 671L292 671Z" stroke="#292D32" stroke-width="50" stroke-linecap="round" stroke-linejoin="round"/>
</svg>
