<svg width="100" height="100" viewBox="0 0 100 100" fill="none" xmlns="http://www.w3.org/2000/svg">
<path d="M21.7432 82.9932C19.1862 82.8638 17.1362 80.8138 17.0068 78.2568L17 78V73.333H23V77H26.667V83H22L21.7432 82.9932ZM45.333 77V83H36V77H45.333ZM64 77V83H54.667V77H64ZM83 78C83 80.6753 80.8989 82.8595 78.2568 82.9932L78 83H73.333V77H77V73.333H83V78ZM23 54.667V64H17V54.667H23ZM83 54.667V64H77V54.667H83ZM23 36V45.333H17V36H23ZM83 36V45.333H77V36H83ZM26.667 17V23H23V26.667H17V22C17 19.2386 19.2386 17 22 17H26.667ZM45.333 17V23H36V17H45.333ZM64 17V23H54.667V17H64ZM83 26.667H77V23H73.333V17H78C80.7614 17 83 19.2386 83 22V26.667Z" fill="#292D32"/>
</svg>
