<svg width="100" height="100" viewBox="0 0 100 100" fill="none" xmlns="http://www.w3.org/2000/svg">
<path d="M51 10C53.827 10.0001 56.5906 11.0153 58.6709 12.9004C60.3891 14.4575 61.5295 16.5164 61.8818 18.7656C63.0088 18.2703 64.2341 18 65.5 18C67.9522 18.0001 70.2535 19.0062 71.9775 20.7207L72.3154 21.0732L72.6328 21.4404C73.5499 22.5531 74.2105 23.8507 74.5977 25.2324C75.8593 24.5055 77.3347 24 78.999 24C81.8727 24 84.2021 25.2253 86.0273 27.1104C87.9404 29.0864 88.999 31.746 88.999 34.5V57C88.999 65.7214 85.6453 74.1043 79.6465 80.2998L71.1387 89.0869C70.5736 89.6704 69.7957 90 68.9834 90H36.4385C35.6262 90 34.8483 89.6704 34.2832 89.0869L12.7158 66.8115C12.6805 66.775 12.6457 66.7375 12.6123 66.6992C10.8601 64.6948 9.93496 62.0897 10.0029 59.4248C10.071 56.7596 11.1283 54.2053 12.9834 52.2959C14.8415 50.3835 17.3606 49.2639 20.0244 49.2012C22.171 49.1506 24.2546 49.791 26 50.9961V27.3789C26 24.6759 27.0176 22.0537 28.874 20.0967V20.0957C30.7357 18.1338 33.2956 17 36 17C37.4997 17.0001 38.9543 17.3498 40.2705 17.9951C40.7411 16.048 41.8091 14.2778 43.3291 12.9004C45.4094 11.0153 48.173 10 51 10ZM51 16C49.5839 16 48.2775 16.513 47.3574 17.3467C46.4472 18.1716 46 19.2236 46 20.25V46.9795H40V27.3789C40 26.1683 39.5422 25.036 38.7734 24.2256C38.0098 23.4207 37.0082 23.0001 36 23C35.0548 23 34.1152 23.3696 33.3721 24.0791L33.2266 24.2256C32.4576 25.0362 32 26.1683 32 27.3789V56.915L35.7783 60.8184L31.4678 64.9922L23.0596 56.3076C22.2496 55.5622 21.215 55.1755 20.166 55.2002C19.1029 55.2253 18.0697 55.6712 17.2871 56.4766C16.5017 57.285 16.0313 58.3933 16.001 59.5771C15.9711 60.7461 16.3736 61.8672 17.1016 62.7168L37.71 84H67.7119L75.3359 76.126C80.2318 71.0695 82.999 64.1915 82.999 57V34.5C82.999 33.2759 82.5273 32.1203 81.7168 31.2832C80.8185 30.3555 79.977 30 78.999 30C78.2371 30.0001 77.2541 30.451 76.1543 31.5869C75.9197 31.8293 75.6065 32.3455 75.3564 33.1611C75.1207 33.9301 75.0049 34.7623 75 35.4551V49H69V38.5H68.999V35.5C68.999 35.4834 68.9999 35.4668 69 35.4502V28.1426C68.9999 26.9576 68.5684 25.8713 67.877 25.1113V25.1104C67.1941 24.3604 66.3317 24.0001 65.5 24C64.6681 24 63.8059 24.3611 63.123 25.1113C62.4315 25.8713 62.0001 26.9575 62 28.1426V45H56V20.25C56 19.2237 55.5526 18.1716 54.6426 17.3467C53.7226 16.5129 52.416 16.0001 51 16Z" fill="#292D32"/>
<path fill-rule="evenodd" clip-rule="evenodd" d="M50.9996 16C49.5835 16 48.2771 16.5129 47.357 17.3467C46.4469 18.1716 45.9996 19.2236 45.9996 20.25V46.9795H39.9996V27.3789C39.9996 26.1682 39.5419 25.0361 38.773 24.2256C38.0093 23.4207 37.0079 23 35.9996 23C35.0543 23.0001 34.1148 23.3695 33.3717 24.0791L33.2262 24.2256C32.4573 25.0362 31.9996 26.1683 31.9996 27.3789V56.9141L35.7789 60.8184L31.4683 64.9922L23.0601 56.3076C22.2503 55.5622 21.2155 55.1756 20.1666 55.2002C19.1035 55.2252 18.0703 55.6713 17.2877 56.4766C16.5022 57.285 16.0319 58.3933 16.0016 59.5771C15.9717 60.7461 16.3741 61.8672 17.1021 62.7168L37.7105 84H67.7125L75.3365 76.126C80.2323 71.0695 82.9996 64.1914 82.9996 57V34.5C82.9996 33.276 82.5278 32.1203 81.7174 31.2832C80.8192 30.3556 79.9775 30.0001 78.9996 30C78.2377 30 77.2547 30.451 76.1549 31.5869C75.9202 31.8293 75.6071 32.3454 75.357 33.1611C75.1161 33.9468 74.9996 34.7985 74.9996 35.5V49H68.9996V28.1426C68.9995 26.9575 68.5681 25.8713 67.8765 25.1113C67.1936 24.3613 66.3314 24 65.4996 24C64.6676 24 63.8055 24.361 63.1226 25.1113C62.4311 25.8713 61.9997 26.9575 61.9996 28.1426V45H55.9996V20.25C55.9996 19.2236 55.5524 18.1716 54.6422 17.3467C53.7221 16.5129 52.4157 16 50.9996 16Z" fill="#EAF0CE"/>
</svg>
