<svg width="800" height="800" viewBox="0 0 800 800" fill="none" xmlns="http://www.w3.org/2000/svg">
<path d="M600 366.666V200C600 182.319 592.976 165.362 580.474 152.859C567.971 140.357 551.015 133.333 533.333 133.333C515.652 133.333 498.695 140.357 486.193 152.859C473.691 165.362 466.667 182.319 466.667 200" stroke="#292D32" stroke-width="50" stroke-linecap="round" stroke-linejoin="round"/>
<path d="M466.667 333.334V133.334C466.667 115.653 459.643 98.6956 447.14 86.1932C434.638 73.6908 417.681 66.667 400 66.667C382.319 66.667 365.362 73.6908 352.86 86.1932C340.357 98.6956 333.333 115.653 333.333 133.334V200" stroke="#292D32" stroke-width="50" stroke-linecap="round" stroke-linejoin="round"/>
<path d="M333.333 350V200C333.333 182.319 326.31 165.362 313.807 152.859C301.305 140.357 284.348 133.333 266.667 133.333C248.986 133.333 232.029 140.357 219.526 152.859C207.024 165.362 200 182.319 200 200V466.666" stroke="#292D32" stroke-width="50" stroke-linecap="round" stroke-linejoin="round"/>
<path d="M600.003 266.667C600.003 248.986 607.027 232.029 619.53 219.526C632.032 207.024 648.989 200 666.67 200C684.351 200 701.308 207.024 713.81 219.526C726.313 232.029 733.337 248.986 733.337 266.667V466.667C733.337 537.391 705.242 605.219 655.232 655.228C605.222 705.238 537.394 733.333 466.67 733.333H400.003C306.67 733.333 250.003 704.667 200.337 655.333L80.3367 535.333C68.8679 522.631 62.723 506.006 63.1742 488.898C63.6254 471.79 70.6383 455.512 82.7607 443.432C94.8832 431.352 111.187 424.397 128.296 424.007C145.405 423.616 162.009 429.82 174.67 441.333L233.337 500" stroke="#292D32" stroke-width="50" stroke-linecap="round" stroke-linejoin="round"/>
</svg>
