<svg width="100" height="100" viewBox="0 0 100 100" fill="none" xmlns="http://www.w3.org/2000/svg">
<path d="M69 28.1426C68.9999 26.9575 68.5685 25.8713 67.877 25.1113V25.1104C67.194 24.3603 66.3318 24 65.5 24C64.668 24 63.806 24.3609 63.123 25.1113C62.4315 25.8713 62.0001 26.9575 62 28.1426V31.1426H56V28.1426C56.0001 25.5393 56.9385 22.9923 58.6846 21.0732C60.4395 19.1447 62.8842 18 65.5 18C67.9523 18 70.2534 19.0061 71.9775 20.7207L72.3154 21.0732L72.6328 21.4404C74.1747 23.311 74.9999 25.7019 75 28.1426V49H69V28.1426Z" fill="#292D32"/>
<path d="M56 20.25C56 19.2236 55.5528 18.1716 54.6426 17.3467C53.7225 16.5128 52.4162 16 51 16C49.5838 16 48.2775 16.5128 47.3574 17.3467C46.4472 18.1716 46 19.2236 46 20.25V30.5H40V20.25C40 17.4309 41.2388 14.7947 43.3291 12.9004C45.4095 11.0152 48.1729 10 51 10C53.8271 10 56.5905 11.0152 58.6709 12.9004C60.7612 14.7947 62 17.4309 62 20.25V45H56V20.25Z" fill="#292D32"/>
<path d="M40 27.3789C40 26.1682 39.5423 25.0361 38.7734 24.2256C38.0097 23.4206 37.0083 23 36 23C35.0547 23 34.1152 23.3694 33.3721 24.0791L33.2266 24.2256C32.4576 25.0362 32 26.1683 32 27.3789V58H26V27.3789C26 24.6759 27.0176 22.0537 28.874 20.0967V20.0957C30.7357 18.1337 33.2955 17 36 17C38.7046 17 41.2643 18.1344 43.126 20.0967C44.9826 22.0538 46 24.676 46 27.3789V46.9795H40V27.3789Z" fill="#292D32"/>
<path d="M20.025 49.2012C22.5225 49.1423 24.9355 50.0174 26.8287 51.6309L27.2008 51.9629L27.3023 52.0635L35.7789 60.8184L31.4683 64.9922L23.0601 56.3076C22.2502 55.5621 21.2156 55.1755 20.1666 55.2002C19.1034 55.2252 18.0704 55.6712 17.2877 56.4766C16.5022 57.285 16.0319 58.3933 16.0015 59.5771C15.9717 60.7461 16.3741 61.8672 17.1021 62.7168L37.7105 84H67.7125L75.3365 76.126C80.2324 71.0695 82.9996 64.1915 82.9996 57V34.5C82.9996 33.2759 82.5279 32.1203 81.7174 31.2832C80.8191 30.3555 79.9776 30 78.9996 30C78.2377 30 77.2548 30.4509 76.1549 31.5869C75.9202 31.8293 75.6071 32.3454 75.357 33.1611C75.1161 33.9468 74.9996 34.7985 74.9996 35.5V38.5H68.9996V35.5C68.9996 34.2125 69.2021 32.7676 69.6207 31.4023C70.0301 30.0671 70.7171 28.5773 71.8443 27.4131C73.468 25.7362 75.9097 24 78.9996 24C81.8733 24 84.2027 25.2252 86.0279 27.1104C87.941 29.0864 88.9996 31.746 88.9996 34.5V57C88.9996 65.7214 85.6458 74.1043 79.647 80.2998L71.1392 89.0869C70.5741 89.6704 69.7963 90 68.984 90H36.439C35.6267 90 34.8489 89.6704 34.2838 89.0869L12.7164 66.8115C12.681 66.775 12.6463 66.7375 12.6129 66.6992C10.8607 64.6948 9.93553 62.0897 10.0035 59.4248C10.0716 56.7596 11.1288 54.2053 12.984 52.2959C14.8421 50.3835 17.3611 49.2639 20.025 49.2012Z" fill="#292D32"/>
</svg>
