<svg width="100" height="100" viewBox="0 0 100 100" fill="none" xmlns="http://www.w3.org/2000/svg">
<path fill-rule="evenodd" clip-rule="evenodd" d="M44.5312 15.625C37.3516 15.625 31.25 21.8152 31.25 29.8077V64.4229C31.25 75.6017 39.8 84.375 50 84.375C60.2 84.375 68.75 75.6017 68.75 64.4229V29.8077H75V64.4229C75 78.7346 63.9625 90.625 50 90.625C36.0375 90.625 25 78.7346 25 64.4229V29.8077C25 18.6826 33.589 9.375 44.5312 9.375C55.4733 9.375 64.0625 18.6826 64.0625 29.8077V64.4229C64.0625 72.3621 57.9221 79.0867 50 79.0867C42.0779 79.0867 35.9375 72.3621 35.9375 64.4229V29.8077H42.1875V64.4229C42.1875 69.2292 45.8408 72.8367 50 72.8367C54.1592 72.8367 57.8125 69.2292 57.8125 64.4229V29.8077C57.8125 21.8152 51.7108 15.625 44.5312 15.625Z" fill="#292D32"/>
</svg>
