<svg width="100" height="100" viewBox="0 0 100 100" fill="none" xmlns="http://www.w3.org/2000/svg">
<path d="M86 34.6846V39.5625L75.7227 44.5752L86 49.6055V54.501L75.6777 59.5537L86 64.6055V69.501L50 87.124L14 69.501V64.6055L24.3203 59.5537L14 54.501V49.6055L24.2754 44.5752L14 39.5625V34.6846L50 17.124L86 34.6846ZM22.5176 67.0537L50 80.5059L77.4814 67.0537L68.9189 62.8623L50 72.124L31.0791 62.8613L22.5176 67.0537ZM50 57.124L31.0459 47.8779L22.5176 52.0537L50 65.5059L77.4814 52.0537L68.9521 47.8779L50 57.124ZM22.5176 37.124L50 50.5293L77.4814 37.124L50 23.7178L22.5176 37.124Z" fill="#292D32"/>
</svg>
