<svg width="100" height="100" viewBox="0 0 100 100" fill="none" xmlns="http://www.w3.org/2000/svg">
<g clip-path="url(#clip0_763_77)">
<path d="M7.99972 55.7888L37.788 26.0005L72.9113 61.1239L43.123 90.9121L7.99972 55.7888ZM64.426 61.1239L37.788 34.4858L16.485 55.7888L43.123 82.4268L64.426 61.1239Z" fill="black"/>
<path d="M64.426 61.1238L37.788 34.4857L16.485 55.7887L43.123 82.4268L64.426 61.1238Z" fill="#CCFE07"/>
<path d="M59.3677 32.6827L46.7564 20.0715L39.3221 27.5058L71.4375 59.6212L78.8718 52.1869L66.3089 39.624L80.895 25.0378L73.9538 18.0966L59.3677 32.6827ZM73.9538 9.61131L89.3803 25.0378L74.7942 39.624L87.3571 52.1869L71.4375 68.1064L30.8369 27.5058L46.7564 11.5862L59.3677 24.1975L73.9538 9.61131Z" fill="black"/>
<path d="M24.242 68.2424L19.9993 63.9998L30.9995 52.9995L35.2422 57.2422L24.242 68.2424Z" fill="black"/>
<path d="M35.242 79.2424L30.9993 74.9998L41.9995 63.9995L46.2422 68.2422L35.242 79.2424Z" fill="black"/>
</g>
<defs>
<clipPath id="clip0_763_77">
<rect width="100" height="100" fill="white"/>
</clipPath>
</defs>
</svg>
