<svg width="100" height="100" viewBox="0 0 100 100" fill="none" xmlns="http://www.w3.org/2000/svg">
<path d="M67.2979 18.9502C68.1902 18.9503 69.0366 19.3475 69.6064 20.0342C70.1763 20.7209 70.4105 21.6258 70.2461 22.5029C70.1671 22.9244 70.124 23.3254 70.124 23.6875C70.124 26.8261 72.6729 29.375 75.8115 29.375C76.1736 29.375 76.5746 29.332 76.9961 29.2529C77.8732 29.0885 78.7781 29.3227 79.4648 29.8926C80.1515 30.4625 80.5488 31.3088 80.5488 32.2012V67.2988C80.5487 68.1912 80.1515 69.0375 79.4648 69.6074C78.7781 70.1773 77.8732 70.4115 76.9961 70.2471C76.5746 70.168 76.1736 70.125 75.8115 70.125C72.6729 70.125 70.124 72.6739 70.124 75.8125C70.124 76.1746 70.1671 76.5756 70.2461 76.9971C70.4105 77.8742 70.1763 78.7791 69.6064 79.4658C69.0366 80.1525 68.1902 80.5497 67.2979 80.5498H32.2002C31.3078 80.5497 30.4615 80.1525 29.8916 79.4658C29.3217 78.7791 29.0875 77.8742 29.252 76.9971C29.331 76.5756 29.374 76.1746 29.374 75.8125C29.374 72.6739 26.8251 70.125 23.6865 70.125C23.3244 70.125 22.9235 70.168 22.502 70.2471C21.6249 70.4115 20.7199 70.1773 20.0332 69.6074C19.3465 69.0375 18.9493 68.1912 18.9492 67.2988V32.2012L18.9541 32.0342C19.0004 31.2039 19.3895 30.4268 20.0332 29.8926C20.7199 29.3227 21.6248 29.0885 22.502 29.2529C22.9235 29.332 23.3244 29.375 23.6865 29.375C26.8251 29.375 29.374 26.8261 29.374 23.6875C29.374 23.3254 29.331 22.9244 29.252 22.5029C29.0875 21.6258 29.3217 20.7209 29.8916 20.0342C30.4615 19.3475 31.3078 18.9503 32.2002 18.9502H67.2979ZM35.3047 24.9502C34.7192 30.3944 30.3934 34.7202 24.9492 35.3057V64.1934C30.3935 64.7788 34.7192 69.1056 35.3047 74.5498H64.1934C64.7788 69.1055 69.1046 64.7788 74.5488 64.1934V35.3057C69.1046 34.7202 64.7789 30.3944 64.1934 24.9502H35.3047Z" fill="#292D32"/>
<path d="M29.8711 23.9355C29.8711 23.5635 29.8272 23.1542 29.748 22.7256C29.197 20.0341 26.8013 18 23.9355 18C20.66 18 18 20.66 18 23.9355C18 26.8013 20.0341 29.197 22.7256 29.748C23.1542 29.8272 23.5635 29.8711 23.9355 29.8711C27.2112 29.8711 29.8711 27.2112 29.8711 23.9355ZM35.8711 23.9355C35.8711 30.5249 30.5249 35.8711 23.9355 35.8711C23.0994 35.8711 22.3019 35.774 21.5957 35.6416C21.5824 35.6391 21.5689 35.6365 21.5557 35.6338C16.1059 34.5343 12 29.7137 12 23.9355C12 17.3463 17.3463 12 23.9355 12C29.533 12 34.2316 15.8526 35.5195 21.0479L35.6338 21.5557L35.6416 21.5957C35.774 22.3019 35.8711 23.0994 35.8711 23.9355Z" fill="#292D32"/>
<path d="M81.5 23.9355C81.5 20.4962 78.9028 18.0001 76.0605 18C73.5621 18 71.2796 19.9 70.7402 22.6953C70.6642 23.131 70.6211 23.5507 70.6211 23.9355C70.6211 27.375 73.2182 29.8711 76.0605 29.8711C76.3853 29.8711 76.7495 29.8299 77.1387 29.7539C79.5089 29.2383 81.5 26.9278 81.5 23.9355ZM87.5 23.9355C87.5 29.5856 83.6935 34.4897 78.375 35.626C78.3608 35.629 78.3462 35.6319 78.332 35.6348C77.6507 35.77 76.8763 35.8711 76.0605 35.8711C69.586 35.8711 64.6211 30.361 64.6211 23.9355C64.6211 23.1122 64.7121 22.3246 64.8359 21.625C64.8382 21.6123 64.8404 21.5996 64.8428 21.5869C65.8614 16.241 70.3943 12 76.0605 12C82.535 12.0001 87.5 17.5102 87.5 23.9355Z" fill="#292D32"/>
<path d="M29.8711 75.5645C29.871 72.2889 27.2111 69.6289 23.9355 69.6289C23.5633 69.6289 23.1535 69.6717 22.7246 69.751C20.0335 70.3023 18 72.699 18 75.5645C18 78.84 20.66 81.5 23.9355 81.5C26.8003 81.5 29.195 79.4674 29.7471 76.7773C29.8266 76.3476 29.8711 75.9374 29.8711 75.5645ZM35.8711 75.5645C35.8711 76.4005 35.774 77.1981 35.6416 77.9043C35.6391 77.9178 35.6365 77.9318 35.6338 77.9453C34.5342 83.3949 29.7136 87.5 23.9355 87.5C17.3463 87.5 12 82.1537 12 75.5645C12 69.7863 16.1059 64.9667 21.5557 63.8672L21.5957 63.8594C22.302 63.7269 23.0994 63.6289 23.9355 63.6289C30.5248 63.6289 35.871 68.9752 35.8711 75.5645Z" fill="#292D32"/>
<path d="M81.5 75.5645C81.5 72.5729 79.5101 70.2614 77.1406 69.7451C76.7508 69.669 76.3858 69.6289 76.0605 69.6289C73.2182 69.6289 70.6211 72.125 70.6211 75.5645C70.6211 75.9493 70.6642 76.369 70.7402 76.8047C71.2796 79.6001 73.562 81.5 76.0605 81.5C78.9028 81.4999 81.5 79.0038 81.5 75.5645ZM87.5 75.5645C87.5 81.9898 82.535 87.4999 76.0605 87.5C70.3943 87.5 65.8614 83.259 64.8428 77.9131C64.8404 77.9004 64.8382 77.8877 64.8359 77.875C64.712 77.1754 64.6211 76.3879 64.6211 75.5645C64.6211 69.139 69.586 63.6289 76.0605 63.6289C76.8763 63.6289 77.6507 63.73 78.332 63.8652C78.3462 63.8681 78.3608 63.871 78.375 63.874C83.6935 65.0103 87.5 69.9145 87.5 75.5645Z" fill="#292D32"/>
</svg>
