<svg width="100" height="100" viewBox="0 0 100 100" fill="none" xmlns="http://www.w3.org/2000/svg">
<path fill-rule="evenodd" clip-rule="evenodd" d="M53.2767 40.6251L45.8329 25.7378L38.3894 40.6251H53.2767ZM30.5379 42.3527L43.0379 17.3525H48.6279L61.1279 42.3527L58.3329 46.8752H33.333L30.5379 42.3527ZM53.125 56.2502L56.25 53.1252H81.25L84.375 56.2502V81.2502L81.25 84.3752H56.25L53.125 81.2502V56.2502ZM78.125 59.3752H59.375V78.1252H78.125V59.3752ZM31.25 53.1252C22.6205 53.1252 15.625 60.1207 15.625 68.7502C15.625 77.3794 22.6205 84.3752 31.25 84.3752C39.8795 84.3752 46.875 77.3794 46.875 68.7502C46.875 60.1207 39.8795 53.1252 31.25 53.1252ZM21.875 68.7502C21.875 63.5723 26.0723 59.3752 31.25 59.3752C36.4277 59.3752 40.625 63.5723 40.625 68.7502C40.625 73.9277 36.4277 78.1252 31.25 78.1252C26.0723 78.1252 21.875 73.9277 21.875 68.7502Z" fill="#292D32"/>
</svg>
